<svg width="16" height="16" viewBox="0 0 16 16" fill="none" xmlns="http://www.w3.org/2000/svg"> <path d="M8 0C6.41775 0 4.87103 0.469192 3.55544 1.34824C2.23985 2.22729 1.21447 3.47672 0.608967 4.93853C0.00346631 6.40034 -0.15496 8.00887 0.153721 9.56072C0.462403 11.1126 1.22433 12.538 2.34315 13.6568C3.46197 14.7757 4.88743 15.5376 6.43928 15.8463C7.99113 16.155 9.59966 15.9965 11.0615 15.391C12.5233 14.7855 13.7727 13.7601 14.6518 12.4446C15.5308 11.129 16 9.58225 16 8C15.9976 5.879 15.154 3.84557 13.6542 2.34579C12.1544 0.846025 10.121 0.00239972 8 0ZM8 14.9333C6.89867 14.9333 5.7456 13.5136 5.17333 11.2H10.8267C10.2544 13.5136 9.10133 14.9333 8 14.9333ZM4.9568 10.1333C4.74774 8.71879 4.74774 7.2812 4.9568 5.86666H11.0432C11.149 6.57283 11.2014 7.28596 11.2 8C11.2014 8.71404 11.149 9.42717 11.0432 10.1333H4.9568ZM1.06667 8C1.06706 7.27549 1.18152 6.55556 1.40587 5.86666H3.88587C3.68249 7.28161 3.68249 8.71838 3.88587 10.1333H1.40587C1.18152 9.44443 1.06706 8.7245 1.06667 8ZM8 1.06667C9.10133 1.06667 10.2544 2.4864 10.8267 4.8H5.17333C5.7456 2.4864 6.89867 1.06667 8 1.06667ZM12.1141 5.86666H14.5941C15.0463 7.25295 15.0463 8.74704 14.5941 10.1333H12.1141C12.2153 9.42671 12.2662 8.71382 12.2667 8C12.2662 7.28618 12.2153 6.57328 12.1141 5.86666ZM14.1445 4.8H11.9221C11.6848 3.64001 11.2194 2.53871 10.5531 1.56C12.0987 2.17643 13.3727 3.32574 14.1445 4.8ZM5.44693 1.56C4.78057 2.53871 4.31521 3.64001 4.07787 4.8H1.85547C2.62727 3.32574 3.90126 2.17643 5.44693 1.56ZM1.85547 11.2H4.07787C4.31521 12.36 4.78057 13.4613 5.44693 14.44C3.90126 13.8236 2.62727 12.6742 1.85547 11.2ZM10.5531 14.44C11.2194 13.4613 11.6848 12.36 11.9221 11.2H14.1445C13.3727 12.6742 12.0987 13.8236 10.5531 14.44Z" fill="#A1A4AC"></path> </svg>
