<svg width="76" height="48" viewBox="0 0 76 48" fill="none" xmlns="http://www.w3.org/2000/svg">
<path d="M8.43055 17.2887L9.25527 21.5956H11.6378L7.54473 0.213817H4.09309L0 21.5956H2.19927L3.024 17.2887H8.43055ZM5.68146 2.90182L8.09455 15.2422H3.32946L5.68146 2.90182Z" fill="white"/>
<path d="M13.4973 0.213817V21.5956H15.8798V0.213817H13.4973Z" fill="white"/>
<path d="M18.3297 0.213817V21.5956H20.7122V12.4625H22.3922C24.3777 12.4625 25.5078 13.2262 25.5078 15.6393V18.9993C25.5078 20.4349 25.63 20.9847 25.9049 21.5956H28.318C27.9209 20.8625 27.8904 19.9767 27.8904 19.0298V15.7004C27.8904 13.4095 27.1573 11.8211 25.2024 11.2407C27.0351 10.6604 27.8598 9.19418 27.8598 6.84218V5.10109C27.8598 1.92436 26.4548 0.213817 23.0948 0.213817H18.3297ZM20.7122 10.2938V2.38255H23.0337C24.8053 2.38255 25.5078 3.39055 25.5078 5.31491V7.36145C25.5078 9.68291 24.3777 10.2938 22.4838 10.2938H20.7122Z" fill="white"/>
<path d="M30.351 0.213817V21.5956H35.3604C38.6899 21.5956 40.2172 19.5796 40.2172 16.3113V5.52873C40.2172 2.22982 38.6899 0.213817 35.3604 0.213817H30.351ZM32.7335 19.4269V2.38255H35.2993C37.0404 2.38255 37.8652 3.45164 37.8652 5.40655V16.4029C37.8652 18.3578 37.0404 19.4269 35.3299 19.4269H32.7335Z" fill="white"/>
<path d="M42.4618 0.213817V21.5956H44.8443V12.4625H46.5243C48.5098 12.4625 49.6399 13.2262 49.6399 15.6393V18.9993C49.6399 20.4349 49.7621 20.9847 50.037 21.5956H52.4501C52.053 20.8625 52.0225 19.9767 52.0225 19.0298V15.7004C52.0225 13.4095 51.2894 11.8211 49.3345 11.2407C51.1672 10.6604 51.992 9.19418 51.992 6.84218V5.10109C51.992 1.92436 50.5869 0.213817 47.2269 0.213817H42.4618ZM44.8443 10.2938V2.38255H47.1658C48.9374 2.38255 49.6399 3.39055 49.6399 5.31491V7.36145C49.6399 9.68291 48.5098 10.2938 46.6159 10.2938H44.8443Z" fill="white"/>
<path d="M54.2998 16.4335C54.2998 19.6713 55.9187 21.8095 59.1871 21.8095C62.486 21.8095 64.1049 19.6713 64.1049 16.4335V5.376C64.1049 2.10764 62.486 0 59.1871 0C55.9187 0 54.2998 2.10764 54.2998 5.376V16.4335ZM56.6518 5.25382C56.6518 3.32945 57.4765 2.16873 59.1871 2.16873C60.9282 2.16873 61.7223 3.32945 61.7223 5.25382V16.5556C61.7223 18.5105 60.9282 19.6407 59.1871 19.6407C57.4765 19.6407 56.6518 18.5105 56.6518 16.5556V5.25382Z" fill="white"/>
<path d="M66.3552 0.213817V21.5956H68.7378V13.1651H70.8454C74.236 13.1651 75.8243 11.3935 75.8243 8.00291V5.43709C75.8243 2.19927 74.3887 0.213817 71.0287 0.213817H66.3552ZM68.7378 11.0269V2.38255H71.0287C72.7698 2.38255 73.4723 3.36 73.4723 5.31491V8.15564C73.4723 10.2022 72.6171 11.0269 70.8454 11.0269H68.7378Z" fill="white"/>
<path d="M3.97328 38.2045H7.79146V47.3681H11.2126V25.9863H7.79146V35.15H3.97328V25.9863H0.613281V47.3681H3.97328V38.2045Z" fill="#00C2B4"/>
<path d="M14.2597 25.9863V42.2671C14.2597 45.6881 15.9702 47.6431 19.2692 47.6431C22.5681 47.6431 24.2786 45.6881 24.2786 42.2671V25.9863H21.1019V42.4809C21.1019 44.0081 20.4299 44.558 19.3608 44.558C18.2917 44.558 17.6197 44.0081 17.6197 42.4809V25.9863H14.2597Z" fill="#00C2B4"/>
<path d="M34.5247 47.3681H37.9763V25.9863H34.9829V38.7849L31.5312 25.9863H27.316V47.3681H30.34V31.8816L34.5247 47.3681Z" fill="#00C2B4"/>
<path d="M40.1682 29.0409H43.6809V47.3681H47.0409V29.0409H50.5537V25.9863H40.1682V29.0409Z" fill="#00C2B4"/>
<path d="M56.1571 29.0409H61.9607V25.9863H52.7971V47.3681H61.9607V44.3136H56.1571V38.0518H60.7695V34.9972H56.1571V29.0409Z" fill="#00C2B4"/>
<path d="M75.253 47.3681C74.917 46.574 74.8865 45.8103 74.8865 44.7718V41.4729C74.8865 39.2431 74.3366 37.6241 72.6566 36.9216C74.1534 36.2191 74.8559 34.7834 74.8559 32.5841V30.9041C74.8559 27.6052 73.3592 25.9863 69.877 25.9863H64.8065V47.3681H68.1665V38.6627H69.3272C70.8545 38.6627 71.5265 39.3958 71.5265 41.3812V44.7412C71.5265 46.4823 71.6486 46.8183 71.8319 47.3681H75.253ZM69.7854 29.0409C70.9766 29.0409 71.4959 29.7129 71.4959 31.2401V33.3478C71.4959 35.0583 70.7323 35.6081 69.4799 35.6081H68.1665V29.0409H69.7854Z" fill="#00C2B4"/>
</svg>
