<svg width="16" height="16" viewBox="0 0 16 16" fill="none" xmlns="http://www.w3.org/2000/svg"> <path d="M13.3346 10.0947V8C13.3346 7.82319 13.2644 7.65362 13.1394 7.52859C13.0144 7.40357 12.8448 7.33333 12.668 7.33333H8.66798V5.90533C9.29641 5.74307 9.8441 5.35718 10.2084 4.81999C10.5727 4.28281 10.7285 3.63121 10.6467 2.98733C10.5649 2.34346 10.2511 1.75151 9.76413 1.32245C9.27713 0.893392 8.65036 0.656677 8.00131 0.656677C7.35226 0.656677 6.72549 0.893392 6.23849 1.32245C5.75148 1.75151 5.43768 2.34346 5.3559 2.98733C5.27411 3.63121 5.42997 4.28281 5.79424 4.81999C6.15852 5.35718 6.7062 5.74307 7.33464 5.90533V7.33333H3.33464C3.15783 7.33333 2.98826 7.40357 2.86324 7.52859C2.73821 7.65362 2.66798 7.82319 2.66798 8V10.0947C2.03954 10.2569 1.49185 10.6428 1.12757 11.18C0.763299 11.7172 0.607446 12.3688 0.689229 13.0127C0.771012 13.6565 1.08482 14.2485 1.57182 14.6775C2.05882 15.1066 2.68559 15.3433 3.33464 15.3433C3.98369 15.3433 4.61046 15.1066 5.09746 14.6775C5.58447 14.2485 5.89827 13.6565 5.98005 13.0127C6.06184 12.3688 5.90598 11.7172 5.54171 11.18C5.17744 10.6428 4.62975 10.2569 4.00131 10.0947V8.66667H12.0013V10.0947C11.3729 10.2569 10.8252 10.6428 10.4609 11.18C10.0966 11.7172 9.94078 12.3688 10.0226 13.0127C10.1043 13.6565 10.4181 14.2485 10.9052 14.6775C11.3922 15.1066 12.0189 15.3433 12.668 15.3433C13.317 15.3433 13.9438 15.1066 14.4308 14.6775C14.9178 14.2485 15.2316 13.6565 15.3134 13.0127C15.3952 12.3688 15.2393 11.7172 14.875 11.18C14.5108 10.6428 13.9631 10.2569 13.3346 10.0947ZM4.66798 12.6667C4.66798 12.9304 4.58978 13.1882 4.44327 13.4074C4.29676 13.6267 4.08852 13.7976 3.84489 13.8985C3.60125 13.9994 3.33316 14.0258 3.07452 13.9744C2.81588 13.9229 2.5783 13.7959 2.39183 13.6095C2.20536 13.423 2.07838 13.1854 2.02693 12.9268C1.97548 12.6681 2.00189 12.4001 2.1028 12.1564C2.20372 11.9128 2.37462 11.7045 2.59388 11.558C2.81315 11.4115 3.07093 11.3333 3.33464 11.3333C3.68826 11.3333 4.0274 11.4738 4.27745 11.7239C4.5275 11.9739 4.66798 12.313 4.66798 12.6667ZM6.66798 3.33333C6.66798 3.06962 6.74617 2.81184 6.89268 2.59257C7.03919 2.37331 7.24743 2.20241 7.49106 2.10149C7.7347 2.00058 8.00279 1.97417 8.26143 2.02562C8.52007 2.07707 8.75765 2.20405 8.94412 2.39052C9.13059 2.57699 9.25758 2.81457 9.30902 3.07321C9.36047 3.33185 9.33407 3.59994 9.23315 3.84358C9.13223 4.08721 8.96133 4.29545 8.74207 4.44196C8.5228 4.58847 8.26502 4.66667 8.00131 4.66667C7.64769 4.66667 7.30855 4.52619 7.0585 4.27614C6.80845 4.02609 6.66798 3.68695 6.66798 3.33333ZM12.668 14C12.4043 14 12.1465 13.9218 11.9272 13.7753C11.7079 13.6288 11.5371 13.4205 11.4361 13.1769C11.3352 12.9333 11.3088 12.6652 11.3603 12.4065C11.4117 12.1479 11.5387 11.9103 11.7252 11.7239C11.9116 11.5374 12.1492 11.4104 12.4079 11.359C12.6665 11.3075 12.9346 11.3339 13.1782 11.4348C13.4219 11.5357 13.6301 11.7066 13.7766 11.9259C13.9231 12.1452 14.0013 12.403 14.0013 12.6667C14.0013 13.0203 13.8608 13.3594 13.6108 13.6095C13.3607 13.8595 13.0216 14 12.668 14Z" fill="#A1A4AC"></path> </svg>
