<svg width="16" height="14" viewBox="0 0 16 14" fill="none" xmlns="http://www.w3.org/2000/svg"> <path d="M15.6867 0.310887C15.5601 0.195016 15.4049 0.11494 15.2371 0.0788848C15.0693 0.0428299 14.8949 0.0520959 14.7319 0.105731L0.663476 4.74326C0.28007 4.86964 0.0200696 5.21189 0.00110086 5.61511C-0.0178366 6.01836 0.208882 6.38351 0.578695 6.54536L4.05791 8.06761L5.10763 12.9362C5.15123 13.1385 5.25388 13.3186 5.47135 13.374C5.69132 13.43 5.84673 13.3098 6.01085 13.1869L8.59273 11.2537L11.6111 13.7236C11.7869 13.8676 12.0018 13.9426 12.2209 13.9426C12.3271 13.9425 12.4325 13.925 12.533 13.8909C12.8507 13.7831 13.0862 13.5239 13.1629 13.1973L15.9744 1.24414C16.0136 1.07705 16.0076 0.902531 15.957 0.738519C15.9065 0.574506 15.8132 0.426909 15.6867 0.310887ZM6.23576 8.93989C6.23404 8.94395 6.23235 8.94854 6.23076 8.95404L5.64876 10.9874L4.99926 7.97507L9.46541 5.49367L6.34288 8.75861C6.29391 8.81015 6.25729 8.87213 6.23576 8.93989ZM6.42048 11.7063L6.68482 10.7827L6.93766 9.89929L7.84363 10.6407L6.42048 11.7063ZM15.0596 1.02895L12.2482 12.9821C12.2468 12.9881 12.2449 12.9963 12.2312 13.0009C12.2176 13.0055 12.2109 13.0003 12.2063 12.9964L8.90341 10.2936L8.90316 10.2934L7.37288 9.04117L12.2892 3.90061C12.3669 3.81936 12.4129 3.71294 12.4188 3.60068C12.4248 3.48842 12.3903 3.37775 12.3216 3.28876C12.2529 3.19976 12.1545 3.13835 12.0444 3.11567C11.9343 3.093 11.8197 3.11056 11.7214 3.16517L4.44173 7.20982L0.955382 5.68442C0.944757 5.67979 0.938913 5.6772 0.939757 5.65923C0.940601 5.64132 0.946663 5.63929 0.957663 5.63567L15.026 0.998169C15.0329 0.99595 15.0405 0.993387 15.0519 1.0037C15.0632 1.01407 15.0613 1.02195 15.0596 1.02895Z" fill="#A1A4AC"></path> </svg>
