<svg width="18" height="4" viewBox="0 0 18 4" fill="none" xmlns="http://www.w3.org/2000/svg">
    <path d="M0.868164 2.28915C0.868164 1.83082 1.02572 1.44768 1.34082 1.13974C1.66309 0.831797 2.08919 0.677826 2.61914 0.677826C3.14909 0.677826 3.57161 0.831797 3.88672 1.13974C4.20898 1.44768 4.37012 1.83082 4.37012 2.28915C4.37012 2.74749 4.20898 3.13063 3.88672 3.43857C3.57161 3.74651 3.14909 3.90048 2.61914 3.90048C2.08919 3.90048 1.66309 3.74651 1.34082 3.43857C1.02572 3.13063 0.868164 2.74749 0.868164 2.28915Z" fill="#3D8AFF"></path>
    <path d="M7.24902 2.28915C7.24902 1.83082 7.40658 1.44768 7.72168 1.13974C8.04395 0.831797 8.47005 0.677826 9 0.677826C9.52995 0.677826 9.95247 0.831797 10.2676 1.13974C10.5898 1.44768 10.751 1.83082 10.751 2.28915C10.751 2.74749 10.5898 3.13063 10.2676 3.43857C9.95247 3.74651 9.52995 3.90048 9 3.90048C8.47005 3.90048 8.04395 3.74651 7.72168 3.43857C7.40658 3.13063 7.24902 2.74749 7.24902 2.28915Z" fill="#3D8AFF"></path>
    <path d="M13.6299 2.28915C13.6299 1.83082 13.7874 1.44768 14.1025 1.13974C14.4248 0.831797 14.8509 0.677826 15.3809 0.677826C15.9108 0.677826 16.3333 0.831797 16.6484 1.13974C16.9707 1.44768 17.1318 1.83082 17.1318 2.28915C17.1318 2.74749 16.9707 3.13063 16.6484 3.43857C16.3333 3.74651 15.9108 3.90048 15.3809 3.90048C14.8509 3.90048 14.4248 3.74651 14.1025 3.43857C13.7874 3.13063 13.6299 2.74749 13.6299 2.28915Z" fill="#3D8AFF"></path>
</svg>
