<svg width="16" height="14" viewBox="0 0 16 14" fill="none" xmlns="http://www.w3.org/2000/svg"> <path d="M0.314433 12.0633C1.80595 13.0062 3.53524 13.5045 5.29977 13.5C7.90643 13.5 10.2951 12.4987 12.0264 10.6807C13.6831 8.94066 14.5944 6.60266 14.5491 4.22999C15.1771 3.69266 15.9158 2.66666 15.9158 1.66666C15.9158 1.57854 15.8926 1.49197 15.8484 1.41573C15.8042 1.33948 15.7407 1.27627 15.6642 1.23248C15.5877 1.1887 15.5011 1.1659 15.4129 1.1664C15.3248 1.1669 15.2384 1.19068 15.1624 1.23532C14.5724 1.58199 14.0344 1.67266 13.4811 1.51732C12.3511 0.415989 10.6691 0.183989 9.25177 0.947989C8.0131 1.61466 7.32443 2.83466 7.38643 4.16799C5.28597 3.91175 3.36317 2.8615 2.01243 1.23266C1.96114 1.1706 1.89562 1.12184 1.82144 1.09053C1.74727 1.05923 1.66663 1.0463 1.58638 1.05284C1.50613 1.05939 1.42866 1.08522 1.36053 1.12813C1.29241 1.17104 1.23566 1.22977 1.1951 1.29932C0.545766 2.41132 0.552433 3.69999 1.1171 4.74066C0.994789 4.761 0.883772 4.82437 0.80407 4.91935C0.724369 5.01434 0.68123 5.13467 0.682433 5.25866C0.684135 5.76475 0.794746 6.26456 1.00675 6.72411C1.21876 7.18367 1.52719 7.59221 1.9111 7.92199C1.84296 7.98739 1.79476 8.07077 1.77211 8.16246C1.74945 8.25415 1.75326 8.35038 1.7831 8.43999C1.94632 8.9269 2.21212 9.37311 2.56255 9.7485C2.91298 10.1239 3.33989 10.4197 3.81443 10.616C2.82817 11.0865 1.72939 11.27 0.643766 11.1453C0.1211 11.0747 -0.1369 11.7773 0.314433 12.0633ZM5.43643 10.7873C5.81043 10.5 5.61177 9.90132 5.14243 9.89132C4.7422 9.88284 4.34929 9.78234 3.99414 9.5976C3.63899 9.41286 3.33114 9.14884 3.09443 8.82599C3.32502 8.81199 3.55367 8.77537 3.7771 8.71666C4.28443 8.57932 4.26043 7.84732 3.7451 7.74399C3.29422 7.65374 2.87586 7.44402 2.53376 7.13676C2.19166 6.82949 1.9384 6.43597 1.80043 5.99732C2.05177 6.05932 2.30777 6.09399 2.5631 6.09866C3.0691 6.10132 3.26043 5.45266 2.84777 5.18132C1.91777 4.56866 1.5211 3.48666 1.78377 2.46932C3.42 4.12408 5.6174 5.10491 7.94177 5.21799C8.01892 5.22184 8.09591 5.20773 8.16668 5.17678C8.23746 5.14584 8.30009 5.09889 8.34965 5.03964C8.39921 4.98039 8.43434 4.91044 8.4523 4.83531C8.47025 4.76018 8.47052 4.68191 8.4531 4.60666C8.13643 3.23399 8.9031 2.27199 9.72643 1.82866C10.5411 1.38866 11.8491 1.25132 12.8518 2.30332C13.1498 2.61732 14.1551 2.62932 14.6664 2.50999C14.4371 2.94199 14.0844 3.35199 13.7544 3.58266C13.6852 3.63113 13.6294 3.69636 13.5922 3.77225C13.555 3.84815 13.5376 3.93224 13.5418 4.01666C13.6491 6.20666 12.8331 8.38399 11.3031 9.98999C9.76177 11.608 7.63043 12.4993 5.30043 12.4993C4.37377 12.4993 3.4651 12.3487 2.60643 12.058C3.6331 11.8593 4.60843 11.4247 5.43643 10.7873Z" fill="#A1A4AC"></path> </svg>
